<svg version="1.1" width="8" height="8" xmlns="http://www.w3.org/2000/svg" shape-rendering="crispEdges">
<rect x="0" y="3" width="1" height="1" fill="#FFFFFF" />
<rect x="1" y="3" width="1" height="1" fill="#FFFFFF" />
<rect x="2" y="3" width="1" height="1" fill="#FFFFFF" />
<rect x="3" y="3" width="1" height="1" fill="#FFFFFF" />
<rect x="4" y="3" width="1" height="1" fill="#FFFFFF" />
<rect x="5" y="3" width="1" height="1" fill="#FFFFFF" />
<rect x="6" y="3" width="1" height="1" fill="#FFFFFF" />
<rect x="7" y="3" width="1" height="1" fill="#FFFFFF" />
<rect x="0" y="4" width="1" height="1" fill="#FFFFFF" />
<rect x="1" y="4" width="1" height="1" fill="#FFFFFF" />
<rect x="2" y="4" width="1" height="1" fill="#FFFFFF" />
<rect x="3" y="4" width="1" height="1" fill="#FFFFFF" />
<rect x="4" y="4" width="1" height="1" fill="#FFFFFF" />
<rect x="5" y="4" width="1" height="1" fill="#FFFFFF" />
<rect x="6" y="4" width="1" height="1" fill="#FFFFFF" />
<rect x="7" y="4" width="1" height="1" fill="#FFFFFF" />
</svg>